<?xml version="1.0" standalone="no"?>
<!DOCTYPE svg PUBLIC "-//W3C//DTD SVG 20010904//EN"
 "http://www.w3.org/TR/2001/REC-SVG-20010904/DTD/svg10.dtd">
<svg version="1.0" xmlns="http://www.w3.org/2000/svg"
 width="1442.000000pt" height="1156.000000pt" viewBox="0 0 1442.000000 1156.000000"
 preserveAspectRatio="xMidYMid meet">

<g transform="translate(0.000000,1156.000000) scale(0.100000,-0.100000)"
fill="#000000" stroke="none">
<path d="M4210 9889 c-119 -11 -309 -43 -376 -63 -176 -54 -273 -260 -315
-671 -14 -137 -7 -731 10 -935 44 -506 134 -1192 227 -1732 l36 -207 -22 -30
c-37 -54 -89 -177 -112 -268 -31 -125 -31 -380 0 -498 47 -175 173 -374 318
-502 143 -127 372 -265 549 -333 33 -13 64 -26 68 -30 12 -11 -23 -281 -238
-1800 -31 -216 -51 -387 -46 -390 17 -10 241 -53 247 -47 7 7 38 145 118 537
147 713 257 1241 280 1340 14 58 30 135 37 172 11 61 15 68 36 68 12 0 116
-13 230 -30 229 -32 589 -72 841 -94 90 -8 164 -15 166 -17 1 -2 -8 -499 -19
-1104 -12 -605 -19 -1104 -15 -1108 7 -9 248 -33 255 -25 4 4 42 437 141 1628
26 311 50 569 55 574 4 5 91 3 206 -5 254 -17 1056 -17 1278 0 88 7 253 14
367 17 226 4 345 19 478 60 149 46 199 58 205 52 3 -3 35 -203 70 -444 36
-242 81 -540 100 -664 19 -124 60 -405 91 -625 31 -220 58 -402 60 -404 4 -4
241 41 253 48 5 4 -9 220 -30 481 -21 261 -43 549 -49 640 -6 91 -26 361 -45
600 -19 239 -35 447 -35 461 0 24 10 30 133 78 279 111 488 244 847 539 143
118 433 409 521 522 206 265 316 492 355 734 15 94 16 121 6 203 -29 227 -127
395 -312 535 -147 111 -298 158 -515 158 -201 0 -371 -31 -617 -114 -660 -220
-1405 -748 -1802 -1276 -89 -118 -104 -130 -159 -130 l-48 0 -101 208 c-354
731 -618 1424 -819 2147 -60 215 -96 309 -184 474 -127 237 -258 413 -447 597
-300 292 -626 476 -1050 593 -174 48 -293 67 -503 81 -188 12 -589 11 -725 -1z
m830 -139 c127 -13 292 -42 419 -76 466 -123 925 -448 1212 -859 164 -235 255
-447 375 -875 167 -600 481 -1405 780 -2002 l74 -148 -680 0 -681 0 3 -60 3
-60 1370 0 c886 0 1393 -4 1435 -10 173 -28 287 -139 298 -290 9 -129 -61
-303 -203 -503 -159 -225 -331 -333 -608 -384 -113 -21 -408 -23 -547 -4 -633
85 -1256 338 -1808 734 -305 219 -561 437 -794 679 -331 342 -495 470 -730
567 -362 151 -760 145 -996 -15 -30 -19 -55 -34 -57 -32 -2 3 -22 111 -75 423
-66 383 -116 765 -155 1180 -32 332 -45 933 -26 1135 29 306 94 489 187 534
70 33 262 64 494 80 97 7 601 -3 710 -14z m5815 -2585 c39 -8 108 -33 155 -57
68 -33 102 -59 170 -127 95 -96 137 -166 169 -281 115 -414 -220 -969 -924
-1531 -259 -207 -423 -312 -615 -394 -69 -30 -363 -135 -376 -135 -3 0 16 25
41 55 68 84 164 230 206 314 50 101 75 179 89 278 31 213 -77 387 -295 474
l-60 24 -554 5 -554 5 60 75 c351 441 873 839 1433 1092 223 101 432 168 640
203 105 18 329 18 415 0z m-6199 -750 c106 -22 238 -67 325 -111 175 -87 277
-170 544 -438 132 -133 278 -275 325 -316 94 -84 384 -316 500 -401 378 -278
823 -507 1245 -641 273 -87 294 -78 -175 -73 -427 4 -863 24 -1100 50 -74 8
-211 22 -305 30 -420 39 -928 107 -1100 147 -192 44 -445 145 -607 241 -159
94 -316 233 -397 351 -105 152 -157 337 -147 521 13 256 112 460 275 564 57
37 171 77 255 90 82 13 264 6 362 -14z m243 -1891 c7 -7 -77 -424 -331 -1642
l-82 -393 -31 7 c-16 3 -34 10 -38 14 -5 4 32 297 83 651 50 354 107 759 126
899 19 140 39 271 44 290 4 19 14 76 20 125 7 50 14 93 16 97 4 6 183 -38 193
-48z m4676 -579 c93 -1145 105 -1302 112 -1406 l6 -106 -34 -6 c-19 -2 -37 -2
-40 2 -3 3 -38 229 -77 501 -40 272 -104 716 -143 985 -39 270 -73 506 -76
526 l-5 36 103 20 c57 10 105 17 106 14 2 -3 23 -258 48 -566z m-3003 359 c3
-2 4 -21 2 -42 -2 -20 -25 -280 -50 -577 -97 -1161 -123 -1457 -127 -1462 -3
-2 -22 -1 -42 3 l-37 7 6 171 c4 94 11 464 16 821 5 358 13 751 16 873 l7 224
101 -7 c55 -4 104 -9 108 -11z"/>
<path d="M2140 810 l0 -480 100 0 100 0 0 200 0 200 200 0 201 0 -3 83 -3 82
-197 3 -198 2 0 110 0 110 230 0 230 0 0 85 0 85 -330 0 -330 0 0 -480z"/>
<path d="M3333 928 c3 -238 8 -376 16 -400 49 -155 193 -229 416 -215 120 7
178 30 242 93 83 82 85 95 90 522 l5 362 -101 0 -101 0 0 -343 c0 -336 0 -344
-22 -387 -30 -57 -74 -80 -153 -80 -77 0 -141 30 -170 80 -19 33 -20 57 -25
380 l-5 345 -98 3 -99 3 5 -363z"/>
<path d="M4670 810 l0 -480 100 0 100 0 0 201 0 202 62 -7 c108 -13 114 -18
267 -246 l102 -150 114 0 c63 0 115 2 115 5 0 10 -154 251 -189 296 -20 25
-55 61 -79 80 -41 33 -41 34 -20 43 126 47 177 92 202 177 19 62 20 91 5 158
-13 63 -56 123 -111 155 -61 35 -162 46 -434 46 l-234 0 0 -480z m537 290 c66
-40 66 -145 0 -193 -24 -19 -45 -22 -182 -25 l-155 -4 0 121 0 121 153 0 c133
0 156 -3 184 -20z"/>
<path d="M6017 1283 c-4 -3 -7 -219 -7 -480 l0 -473 95 0 95 0 2 302 3 301
185 -301 185 -301 103 -1 102 0 0 480 0 481 -92 -3 -93 -3 -5 -315 c-3 -173
-8 -307 -12 -298 -8 20 -330 548 -360 591 -19 26 -23 27 -107 27 -48 0 -91 -3
-94 -7z"/>
<path d="M7348 1273 c-2 -9 -2 -225 0 -480 l2 -463 95 0 95 0 0 480 0 480 -94
0 c-80 0 -95 -3 -98 -17z"/>
<path d="M8030 1205 l0 -85 140 0 140 0 0 -395 0 -395 100 0 100 0 0 395 0
395 140 0 140 0 0 85 0 85 -380 0 -380 0 0 -85z"/>
<path d="M9287 1283 c-11 -10 -8 -527 3 -646 12 -122 32 -176 87 -231 73 -72
177 -102 333 -93 115 7 154 17 217 61 36 25 57 49 83 101 l35 68 3 373 4 374
-95 0 -95 0 -3 -347 c-4 -326 -5 -350 -24 -382 -32 -55 -67 -75 -141 -79 -89
-6 -146 16 -182 71 l-27 40 -3 349 -3 348 -93 0 c-51 0 -96 -3 -99 -7z"/>
<path d="M10630 811 l0 -481 95 0 95 0 2 197 3 198 64 -3 c46 -2 73 -9 95 -25
40 -28 38 -25 163 -209 l107 -158 117 0 118 0 -86 138 c-108 172 -127 197
-185 243 l-47 37 52 17 c73 23 124 61 155 114 24 41 27 56 27 136 0 74 -4 98
-22 131 -30 57 -96 110 -152 124 -26 7 -165 14 -323 17 l-278 5 0 -481z m528
289 c40 -24 55 -62 48 -115 -11 -86 -78 -110 -286 -103 l-95 3 -3 118 -3 117
153 0 c135 0 157 -2 186 -20z"/>
<path d="M11967 1283 c-2 -5 -2 -14 -1 -20 1 -7 2 -220 3 -473 l1 -460 365 0
365 0 0 80 0 80 -270 0 -270 0 0 130 0 130 240 0 240 0 0 80 0 80 -240 0 -240
0 0 105 0 105 258 2 257 3 3 83 3 82 -355 0 c-195 0 -357 -3 -359 -7z"/>
</g>
</svg>
